<?xml version="1.0" encoding="utf-8"?>
<!-- Generator: Adobe Illustrator 19.1.1, SVG Export Plug-In . SVG Version: 6.00 Build 0)  -->
<svg version="1.1" id="Layer_1" xmlns="http://www.w3.org/2000/svg" xmlns:xlink="http://www.w3.org/1999/xlink" x="0px" y="0px"
	 viewBox="0 0 283.5 283.5" style="enable-background:new 0 0 283.5 283.5;" xml:space="preserve">
<style type="text/css">
	.st0{fill:#FFDB8C;}
	.st1{fill:#54AE32;}
	.st2{fill:#D3111B;}
</style>
<g>
	<polygon class="st0" points="71.9,99.8 91.3,273.9 203.4,273.9 221.4,99.8 	"/>
	<path class="st1" d="M71.9,99.8l19.5,174.1h112.1l18-174.1H71.9z M196.1,117.3l-10.5-5.4l-10.4,5.6l1.8-11.2h17L196.1,117.3z
		 M196.5,181.6l-10.5-5.4l-10.4,5.6l1.9-11.6l-8.5-8.1l11.6-1.8l5.1-10.6l5.3,10.5l11.7,1.6l-8.4,8.3L196.5,181.6z M176.8,213.7
		l-10.5-5.4l-10.4,5.6l1.9-11.6l-8.5-8.1l11.6-1.8l5.1-10.6l5.3,10.5l11.7,1.6l-8.4,8.3L176.8,213.7z M157.1,245.8l-10.5-5.4
		l-10.4,5.6l1.9-11.6l-8.5-8.1l11.6-1.8l5.1-10.6l5.3,10.5l11.7,1.6l-8.4,8.3L157.1,245.8z M109.6,194.1l11.6-1.8l5.1-10.6l5.3,10.5
		l11.7,1.6l-8.4,8.3l2.1,11.6l-10.5-5.4l-10.4,5.6l1.9-11.6L109.6,194.1z M89.5,162l11.6-1.8l5.1-10.6l5.3,10.5l11.7,1.6l-8.4,8.3
		l2.1,11.6l-10.5-5.4l-10.4,5.6l1.9-11.6L89.5,162z M176.4,149.4l-10.5-5.4l-10.4,5.6l1.9-11.6l-8.5-8.1l11.6-1.8l5.1-10.6L171,128
		l11.7,1.6l-8.4,8.3L176.4,149.4z M151.3,160.1l11.7,1.6l-8.4,8.3l2.1,11.6l-10.5-5.4l-10.4,5.6l1.9-11.6l-8.5-8.1l11.6-1.8
		l5.1-10.6L151.3,160.1z M134.5,137.9l2.1,11.6l-10.5-5.4l-10.4,5.6l1.9-11.6l-8.5-8.1l11.6-1.8l5.1-10.6l5.3,10.5l11.7,1.6
		L134.5,137.9z M156.3,117.3l-10.5-5.4l-10.4,5.6l1.8-11.2h17L156.3,117.3z M116.5,117.3l-10.5-5.4l-10.4,5.6l1.8-11.2h17
		L116.5,117.3z M81.5,127.2l4.7-9.7l5.3,10.5l11.7,1.6l-8.4,8.3l2.1,11.6l-10.5-5.4l-2.9,1.5L81.5,127.2z M91.9,192.2l11.7,1.6
		l-8.4,8.3l2.1,11.6l-6.5-3.3l-2.9-26.1L91.9,192.2z M92.5,225.8l9.1-1.4l5.1-10.6l5.3,10.5l11.7,1.6l-8.4,8.3l2.1,11.6l-10.5-5.4
		L96.5,246l1.9-11.6l-5.6-5.3L92.5,225.8z M104,258.1l-7.1,7L96,257L104,258.1z M110,258.3l11.6-1.8l5.1-10.6l5.3,10.5l11.7,1.6
		l-8.4,8.3l0.2,1.1h-17.2l0.2-0.9L110,258.3z M149.8,258.3l11.6-1.8l5.1-10.6l5.3,10.5l11.7,1.6l-8.4,8.3l0.2,1.1h-17.2l0.2-0.9
		L149.8,258.3z M189.6,258.3l9.1-1.4l-1,9.2L189.6,258.3z M196.9,245.8l-10.5-5.4l-10.4,5.6l1.9-11.6l-8.5-8.1l11.6-1.8l5.1-10.6
		l5.3,10.5l10.4,1.4l-0.2,1.6l-6.9,6.8L196.9,245.8z M203.6,209.7l-7.8,4.2l1.9-11.6l-8.5-8.1l11.6-1.8l5.1-10.6l0.4,0.9
		L203.6,209.7z M205.7,144.1l-10.4,5.6l1.9-11.6l-8.5-8.1l11.6-1.8l5.1-10.6l5.3,10.5l1.2,0.2l-1.9,18.2L205.7,144.1z"/>
	<path class="st2" d="M276.2,77.9c-2.1-11.9-11.1-22.6-22.8-27.2c-11.1-4.4-24.3-3.4-35.3,2.5c-8.7,4.7-15.5,11.9-22,18.9
		c-7.3,7.8-14.3,15.3-23.5,19c-1.9,0.8-6.5,2.3-11.4,3.7c-1.2,0.4-2.4,0.7-3.6,1.1c-0.2,0.1-0.3-0.2-0.1-0.3l1.1-0.8l11.9-8.2
		c11.4-7.8,25.5-17.5,32.1-32.2c4.4-9.7,4.7-20.2,0.9-28.8c-4.4-9.9-14.3-16.4-24.4-15.8c-6.8,0.4-13.6,4.1-18.8,10
		c-4.9,5.6-7.9,12.4-9.9,17.7c-2.3,6-4.1,15.5-5.6,21.9c0,0.1-0.2,0.1-0.2,0c-1.4-6.4-3.3-15.9-5.6-21.9c-2-5.3-5-12.1-9.9-17.7
		c-5.2-5.9-12.1-9.5-18.9-10c-10.1-0.6-20,5.9-24.4,15.8c-3.8,8.6-3.5,19.1,0.9,28.8c6.6,14.7,20.8,24.4,32.1,32.2l11.9,8.2l3.3,2.3
		c0.1,0.1,0.1,0.3-0.1,0.3c-3.6-0.3-7-1.2-10.2-2.6c-10.8-4.5-19.3-14-28.8-24.4c-8.6-9.5-17.5-19.3-28.9-26
		c-10.4-6.1-24-7.1-35.4-2.6C19,46.4,10,57.1,7.9,69c-2.2,12.6,3.4,26,13.8,32.7c4.3,2.7,9,4.2,13.5,4.2c3.1,0,6-0.6,8.6-2
		c4-2,7.1-5.8,8.5-10.2c0.7-2.3,0.8-4.5,0.5-6.6c-0.4-2.4-3-3.7-5.1-2.5c-1,0.6-1.7,1.7-1.7,2.9c0,0.2,0,0.4,0.1,0.5
		c0.2,1.2,0.1,2.5-0.3,3.8c-0.8,2.6-2.7,5-5,6.1c-4.3,2.1-10.4,1.4-15.4-1.8c-8.1-5.2-12.6-15.8-10.8-25.8c1.7-9.6,9-18.3,18.6-22.1
		c9.5-3.8,20.9-2.9,29.5,2.1C73.2,56.4,81.8,65.8,90,74.9c7.7,8.5,16.2,18.4,26.7,23.9c0.7,0.4,1.3,0.7,2,1c2.9,1.3,5.9,2.3,9,2.9
		c3.9,0.7,11.1,0.2,14.1,3.6c0,0,0,0,0,0c0.6,0.7,0.9,1.6,0.9,2.6c-0.1,9.8,0.3,69.5,0.3,69.5c0,0.1-0.1,0.1-0.1,0.1l-55.8-0.2
		l-6.5,0l0.8,6.8l6.5,0l55,0.2c0.1,0,0.1,0.1,0.1,0.1l0,81.9v6.5h6.8v-6.5l0-81.9c0-0.1,0.1-0.1,0.1-0.1l55.9,0.8l6.5,0.1l0.7-6.8
		l-6.5-0.1l-56.6-0.8c-0.1,0-0.1-0.1-0.1-0.1c0-6.3-1-69.4,0.9-71.7c0.1-0.1,0.2-0.3,0.4-0.4c0.2-0.3,0.5-0.5,0.8-0.7
		c2.4-1.8,6.5-2.9,8.9-3.7c2.3-0.7,4.6-1.4,6.9-2.1c1-0.3,2-0.6,3-1c4.1-1.4,8-3,11.7-5.3c7-4.5,12.8-10.7,18.5-16.8
		c6.5-6.9,12.5-13.4,20.2-17.5c9.3-5,20.4-5.8,29.6-2.2c9.6,3.8,16.9,12.4,18.6,22.1c1.8,9.9-2.7,20.5-10.8,25.8
		c-5,3.3-11.1,4-15.4,1.8c-2.3-1.1-4.2-3.5-5-6.1c-0.4-1.2-0.5-2.4-0.3-3.5c0.2-1.4-0.3-3-1.6-3.7c-0.6-0.3-1.2-0.5-1.7-0.5
		c-1.6,0-3.1,1.2-3.4,2.9c-0.3,2.1-0.2,4.4,0.5,6.6c1.3,4.4,4.5,8.3,8.5,10.2c2.6,1.3,5.6,2,8.6,2c4.5,0,9.2-1.4,13.5-4.2
		C272.8,103.9,278.5,90.4,276.2,77.9z M156.8,39.9c1.8-4.8,4.5-10.9,8.7-15.7c4-4.6,9.2-7.4,14.2-7.7c0.3,0,0.6,0,0.9,0
		c6.9,0,13.8,4.8,16.9,11.8c3,6.7,2.7,15.4-0.9,23.2c-5.9,13-19.2,22.1-29.8,29.4l-18.1,12.4c-0.1,0.1-0.3,0-0.3-0.1
		C147.5,75.2,150.3,56.9,156.8,39.9z M122.9,81C112.2,73.7,99,64.5,93.1,51.6c-3.6-7.8-3.9-16.5-0.9-23.2c3.1-6.9,10-11.8,16.9-11.8
		c0.3,0,0.6,0,0.9,0c5,0.3,10.1,3.1,14.2,7.7c4.2,4.8,6.8,10.9,8.7,15.7c6.5,16.9,9.3,35.3,8.4,53.4c0,0.1-0.1,0.2-0.2,0.1L122.9,81
		z"/>
</g>
</svg>
